<svg width="551" height="608" viewBox="0 0 551 608" fill="none" xmlns="http://www.w3.org/2000/svg">
<path opacity="0.15" fill-rule="evenodd" clip-rule="evenodd" d="M266.871 31.4438C325.376 29.8368 382.586 -16.7384 436.333 6.46854C492.383 30.6701 526.049 91.523 542.419 150.421C558.381 207.852 551.873 270.996 524.578 323.973C499.579 372.49 443.337 390.625 400.962 424.967C355.279 461.99 324.801 522.949 266.871 532.827C206 543.207 143.726 515.046 94.9259 477.153C47.084 440.004 10.3533 386.497 1.22407 326.556C-7.23908 270.989 30.3299 222.218 47.9711 168.857C65.4749 115.912 56.848 45.2138 104.029 15.5963C151.399 -14.1403 210.987 32.9788 266.871 31.4438Z" fill="#FF7939"/>
<path opacity="0.25" fill-rule="evenodd" clip-rule="evenodd" d="M299.8 226.061C350.975 218.578 396.601 168.773 445.59 185.362C495.789 202.361 524.498 257.333 540.973 307.732C557.468 358.194 551.975 412.302 536.357 463.043C520.535 514.447 499.493 570.434 452.228 596.054C406.41 620.89 351.033 600.793 299.8 591.271C257.932 583.489 213.905 576.09 183.624 546.132C155.377 518.186 158.833 473.638 143.739 436.874C126.793 395.6 82.0341 361.823 89.9239 317.906C97.876 273.642 140.817 241.927 181.999 223.906C218.884 207.764 259.965 231.886 299.8 226.061Z" fill="#FF7939"/>
</svg>
