<svg width="34" height="33" viewBox="0 0 34 33" fill="none" xmlns="http://www.w3.org/2000/svg">
<path d="M16.9985 8.01274C12.3258 8.01274 8.5547 11.7838 8.5547 16.4565C8.5547 21.1292 12.3258 24.9003 16.9985 24.9003C21.6712 24.9003 25.4423 21.1292 25.4423 16.4565C25.4423 11.7838 21.6712 8.01274 16.9985 8.01274ZM16.9985 21.9444C13.9767 21.9444 11.5106 19.4783 11.5106 16.4565C11.5106 13.4347 13.9767 10.9687 16.9985 10.9687C20.0203 10.9687 22.4863 13.4347 22.4863 16.4565C22.4863 19.4783 20.0203 21.9444 16.9985 21.9444ZM25.7881 5.69903C24.6971 5.69903 23.8161 6.58005 23.8161 7.67103C23.8161 8.76201 24.6971 9.64303 25.7881 9.64303C26.8791 9.64303 27.7601 8.76613 27.7601 7.67103C27.7604 7.41197 27.7096 7.1554 27.6106 6.916C27.5117 6.6766 27.3664 6.45907 27.1832 6.27589C27.0001 6.09271 26.7825 5.94747 26.5431 5.84848C26.3037 5.74949 26.0472 5.69871 25.7881 5.69903ZM33.4579 16.4565C33.4579 14.184 33.4785 11.932 33.3509 9.66362C33.2232 7.02879 32.6222 4.69039 30.6955 2.76367C28.7646 0.832841 26.4303 0.235888 23.7955 0.108264C21.523 -0.0193601 19.271 0.00122455 17.0026 0.00122455C14.7301 0.00122455 12.4781 -0.0193601 10.2097 0.108264C7.57488 0.235888 5.23647 0.836958 3.30975 2.76367C1.37892 4.6945 0.78197 7.02879 0.654346 9.66362C0.526721 11.9362 0.547306 14.1881 0.547306 16.4565C0.547306 18.7249 0.526721 20.981 0.654346 23.2494C0.78197 25.8843 1.38304 28.2227 3.30975 30.1494C5.24059 32.0802 7.57488 32.6772 10.2097 32.8048C12.4822 32.9324 14.7342 32.9118 17.0026 32.9118C19.2751 32.9118 21.5271 32.9324 23.7955 32.8048C26.4303 32.6772 28.7687 32.0761 30.6955 30.1494C32.6263 28.2185 33.2232 25.8843 33.3509 23.2494C33.4826 20.981 33.4579 18.7291 33.4579 16.4565ZM29.835 26.1642C29.5345 26.9135 29.1722 27.4734 28.5917 28.0497C28.0112 28.6302 27.4554 28.9925 26.7062 29.2931C24.5407 30.1535 19.3986 29.96 16.9985 29.96C14.5983 29.96 9.45219 30.1535 7.28669 29.2972C6.53741 28.9966 5.97751 28.6344 5.40115 28.0539C4.82066 27.4734 4.45837 26.9176 4.15784 26.1683C3.30152 23.9987 3.49502 18.8567 3.49502 16.4565C3.49502 14.0564 3.30152 8.91022 4.15784 6.74473C4.45837 5.99545 4.82066 5.43555 5.40115 4.85918C5.98163 4.28281 6.53741 3.91641 7.28669 3.61587C9.45219 2.75956 14.5983 2.95305 16.9985 2.95305C19.3986 2.95305 24.5448 2.75956 26.7103 3.61587C27.4596 3.91641 28.0195 4.2787 28.5958 4.85918C29.1763 5.43967 29.5386 5.99545 29.8391 6.74473C30.6955 8.91022 30.502 14.0564 30.502 16.4565C30.502 18.8567 30.6955 23.9987 29.835 26.1642Z" fill="black"/>
</svg>
