<svg width="34" height="33" viewBox="0 0 34 33" fill="none" xmlns="http://www.w3.org/2000/svg">
<path d="M24.0654 19.6855C23.665 19.4798 21.6704 18.5027 21.2994 18.3705C20.9284 18.2309 20.6566 18.1648 20.3884 18.5762C20.1166 18.9839 19.3452 19.8913 19.1028 20.1668C18.8677 20.4386 18.6289 20.4716 18.2285 20.2696C15.8482 19.0794 14.287 18.1464 12.7185 15.4539C12.3034 14.7376 13.1336 14.789 13.9087 13.2425C14.0409 12.9707 13.9748 12.7393 13.8719 12.5336C13.7691 12.3279 12.961 10.3369 12.623 9.52511C12.2961 8.73535 11.9581 8.84555 11.712 8.83086C11.4769 8.81616 11.2088 8.81616 10.937 8.81616C10.6651 8.81616 10.228 8.91902 9.85699 9.31941C9.48599 9.72715 8.43909 10.7079 8.43909 12.6989C8.43909 14.6898 9.89005 16.6183 10.0884 16.8901C10.2941 17.162 12.9426 21.2467 17.009 23.0062C19.5803 24.1156 20.5868 24.2111 21.8724 24.0201C22.6549 23.9025 24.2675 23.043 24.6017 22.0916C24.936 21.1439 24.936 20.3321 24.8368 20.1631C24.7376 19.9831 24.4658 19.8802 24.0654 19.6855Z" fill="black"/>
<path d="M31.8419 10.0796C31.0117 8.10704 29.8216 6.3365 28.3045 4.81574C26.7874 3.29865 25.0169 2.10482 23.0406 1.27832C21.0203 0.42978 18.875 0 16.6637 0H16.5902C14.3642 0.01102 12.208 0.45182 10.1803 1.31873C8.22239 2.15625 6.46654 3.3464 4.96414 4.86349C3.46175 6.38058 2.28261 8.14377 1.46713 10.109C0.622265 12.144 0.196159 14.3076 0.207179 16.5337C0.218199 19.083 0.827972 21.6139 1.97038 23.8767V29.4601C1.97038 30.3931 2.72708 31.1498 3.66011 31.1498H9.24725C11.51 32.2923 14.0409 32.902 16.5902 32.913H16.6674C18.8677 32.913 21.0019 32.4869 23.0112 31.6531C24.9764 30.8339 26.7433 29.6585 28.2567 28.1561C29.7738 26.6537 30.9677 24.8978 31.8015 22.94C32.6684 20.9123 33.1092 18.756 33.1202 16.53C33.1312 14.2929 32.6978 12.122 31.8419 10.0796ZM26.2915 26.1688C23.7165 28.7181 20.3003 30.1213 16.6637 30.1213H16.6013C14.3862 30.1103 12.1859 29.5593 10.2427 28.5234L9.93416 28.3581H4.76211V23.1861L4.59681 22.8775C3.56093 20.9343 3.00993 18.734 2.99891 16.519C2.98422 12.8567 4.38376 9.41842 6.95141 6.82872C9.5154 4.23902 12.9426 2.80642 16.6049 2.79173H16.6674C18.504 2.79173 20.2856 3.14804 21.9643 3.85332C23.6026 4.54024 25.072 5.52836 26.3356 6.79199C27.5955 8.05194 28.5873 9.52495 29.2742 11.1633C29.9869 12.8603 30.3432 14.6603 30.3358 16.519C30.3138 20.1776 28.8775 23.6048 26.2915 26.1688Z" fill="black"/>
</svg>
