<svg width="271" height="27" viewBox="0 0 271 27" fill="none" xmlns="http://www.w3.org/2000/svg">
<path d="M1.42 26C1.18 26 0.964 25.916 0.772 25.748C0.604 25.556 0.52 25.34 0.52 25.1V1.7C0.52 1.436 0.604 1.22 0.772 1.052C0.964 0.883999 1.18 0.799998 1.42 0.799998H6.172C6.436 0.799998 6.652 0.883999 6.82 1.052C6.988 1.22 7.072 1.436 7.072 1.7V20.564H17.98C18.244 20.564 18.46 20.66 18.628 20.852C18.796 21.02 18.88 21.236 18.88 21.5V25.1C18.88 25.34 18.796 25.556 18.628 25.748C18.46 25.916 18.244 26 17.98 26H1.42Z" fill="#FF7939"/>
<path d="M20.2005 26C20.0725 26 19.9525 25.952 19.8405 25.856C19.7445 25.744 19.6965 25.624 19.6965 25.496C19.6965 25.4 19.7045 25.328 19.7205 25.28L25.3605 9.872C25.4085 9.68 25.5125 9.52 25.6725 9.392C25.8325 9.264 26.0405 9.2 26.2965 9.2H29.8485C30.1045 9.2 30.3125 9.264 30.4725 9.392C30.6325 9.52 30.7365 9.68 30.7845 9.872L36.4005 25.28L36.4485 25.496C36.4485 25.624 36.3925 25.744 36.2805 25.856C36.1845 25.952 36.0645 26 35.9205 26H32.9685C32.5845 26 32.3285 25.832 32.2005 25.496L31.2645 23.048H24.8565L23.9445 25.496C23.8165 25.832 23.5525 26 23.1525 26H20.2005ZM30.3045 19.592L28.0725 13.256L25.8405 19.592H30.3045ZM38.9402 26C38.7802 26 38.6362 25.944 38.5082 25.832C38.3962 25.704 38.3402 25.56 38.3402 25.4V9.8C38.3402 9.624 38.3962 9.48 38.5082 9.368C38.6362 9.256 38.7802 9.2 38.9402 9.2H41.4842C41.8842 9.2 42.1562 9.352 42.3002 9.656L48.1562 18.872V9.8C48.1562 9.624 48.2122 9.48 48.3242 9.368C48.4522 9.256 48.5962 9.2 48.7562 9.2H51.6362C51.8122 9.2 51.9562 9.256 52.0682 9.368C52.1802 9.48 52.2362 9.624 52.2362 9.8V25.376C52.2362 25.552 52.1802 25.704 52.0682 25.832C51.9562 25.944 51.8122 26 51.6362 26H49.0682C48.7162 26 48.4522 25.848 48.2762 25.544L42.4202 16.664V25.4C42.4202 25.56 42.3642 25.704 42.2522 25.832C42.1402 25.944 41.9962 26 41.8202 26H38.9402ZM62.5262 26.24C60.2222 26.24 58.4222 25.68 57.1262 24.56C55.8302 23.424 55.1422 21.816 55.0622 19.736C55.0462 19.272 55.0382 18.536 55.0382 17.528C55.0382 16.52 55.0462 15.784 55.0622 15.32C55.1422 13.288 55.8382 11.72 57.1502 10.616C58.4782 9.512 60.2702 8.96 62.5262 8.96C64.0462 8.96 65.3662 9.208 66.4862 9.704C67.6222 10.2 68.4862 10.832 69.0782 11.6C69.6862 12.368 70.0062 13.16 70.0382 13.976C70.0382 14.12 69.9822 14.24 69.8702 14.336C69.7742 14.432 69.6542 14.48 69.5102 14.48H66.0062C65.8462 14.48 65.7182 14.456 65.6222 14.408C65.5262 14.36 65.4462 14.272 65.3822 14.144C65.1742 13.68 64.8462 13.28 64.3982 12.944C63.9502 12.592 63.3262 12.416 62.5262 12.416C60.6222 12.416 59.6222 13.424 59.5262 15.44C59.5102 15.888 59.5022 16.584 59.5022 17.528C59.5022 18.456 59.5102 19.152 59.5262 19.616C59.6222 21.728 60.6462 22.784 62.5982 22.784C63.5422 22.784 64.2942 22.544 64.8542 22.064C65.4302 21.568 65.7182 20.816 65.7182 19.808V19.352H63.4622C63.2862 19.352 63.1422 19.296 63.0302 19.184C62.9182 19.056 62.8622 18.904 62.8622 18.728V16.952C62.8622 16.776 62.9182 16.632 63.0302 16.52C63.1422 16.392 63.2862 16.328 63.4622 16.328H69.5102C69.6862 16.328 69.8302 16.392 69.9422 16.52C70.0542 16.632 70.1102 16.776 70.1102 16.952V19.688C70.1102 21.048 69.7982 22.224 69.1742 23.216C68.5502 24.192 67.6622 24.944 66.5102 25.472C65.3742 25.984 64.0462 26.24 62.5262 26.24ZM79.9196 26.24C77.6636 26.24 75.8956 25.688 74.6156 24.584C73.3516 23.48 72.7196 21.816 72.7196 19.592V9.8C72.7196 9.624 72.7756 9.48 72.8876 9.368C73.0156 9.256 73.1596 9.2 73.3196 9.2H76.4156C76.5916 9.2 76.7356 9.256 76.8476 9.368C76.9756 9.48 77.0396 9.624 77.0396 9.8V19.568C77.0396 20.608 77.2796 21.392 77.7596 21.92C78.2556 22.432 78.9676 22.688 79.8956 22.688C80.8076 22.688 81.5116 22.424 82.0076 21.896C82.5036 21.368 82.7516 20.592 82.7516 19.568V9.8C82.7516 9.624 82.8076 9.48 82.9196 9.368C83.0476 9.256 83.1916 9.2 83.3516 9.2H86.4716C86.6476 9.2 86.7916 9.256 86.9036 9.368C87.0156 9.48 87.0716 9.624 87.0716 9.8V19.592C87.0716 21.816 86.4316 23.48 85.1516 24.584C83.8876 25.688 82.1436 26.24 79.9196 26.24ZM88.9192 26C88.7912 26 88.6712 25.952 88.5592 25.856C88.4632 25.744 88.4152 25.624 88.4152 25.496C88.4152 25.4 88.4232 25.328 88.4392 25.28L94.0792 9.872C94.1272 9.68 94.2312 9.52 94.3912 9.392C94.5512 9.264 94.7592 9.2 95.0152 9.2H98.5672C98.8232 9.2 99.0312 9.264 99.1912 9.392C99.3512 9.52 99.4552 9.68 99.5032 9.872L105.119 25.28L105.167 25.496C105.167 25.624 105.111 25.744 104.999 25.856C104.903 25.952 104.783 26 104.639 26H101.687C101.303 26 101.047 25.832 100.919 25.496L99.9832 23.048H93.5752L92.6632 25.496C92.5352 25.832 92.2712 26 91.8712 26H88.9192ZM99.0232 19.592L96.7912 13.256L94.5592 19.592H99.0232ZM113.643 26.24C111.339 26.24 109.539 25.68 108.243 24.56C106.947 23.424 106.259 21.816 106.179 19.736C106.163 19.272 106.155 18.536 106.155 17.528C106.155 16.52 106.163 15.784 106.179 15.32C106.259 13.288 106.955 11.72 108.267 10.616C109.595 9.512 111.387 8.96 113.643 8.96C115.163 8.96 116.483 9.208 117.603 9.704C118.739 10.2 119.603 10.832 120.195 11.6C120.803 12.368 121.123 13.16 121.155 13.976C121.155 14.12 121.099 14.24 120.987 14.336C120.891 14.432 120.771 14.48 120.627 14.48H117.123C116.963 14.48 116.835 14.456 116.739 14.408C116.643 14.36 116.563 14.272 116.499 14.144C116.291 13.68 115.963 13.28 115.515 12.944C115.067 12.592 114.443 12.416 113.643 12.416C111.739 12.416 110.739 13.424 110.643 15.44C110.627 15.888 110.619 16.584 110.619 17.528C110.619 18.456 110.627 19.152 110.643 19.616C110.739 21.728 111.763 22.784 113.715 22.784C114.659 22.784 115.411 22.544 115.971 22.064C116.547 21.568 116.835 20.816 116.835 19.808V19.352H114.579C114.403 19.352 114.259 19.296 114.147 19.184C114.035 19.056 113.979 18.904 113.979 18.728V16.952C113.979 16.776 114.035 16.632 114.147 16.52C114.259 16.392 114.403 16.328 114.579 16.328H120.627C120.803 16.328 120.947 16.392 121.059 16.52C121.171 16.632 121.227 16.776 121.227 16.952V19.688C121.227 21.048 120.915 22.224 120.291 23.216C119.667 24.192 118.779 24.944 117.627 25.472C116.491 25.984 115.163 26.24 113.643 26.24ZM124.581 26C124.421 26 124.277 25.944 124.149 25.832C124.037 25.704 123.981 25.56 123.981 25.4V9.8C123.981 9.624 124.037 9.48 124.149 9.368C124.277 9.256 124.421 9.2 124.581 9.2H135.789C135.965 9.2 136.109 9.256 136.221 9.368C136.333 9.48 136.389 9.624 136.389 9.8V12.056C136.389 12.216 136.333 12.36 136.221 12.488C136.109 12.6 135.965 12.656 135.789 12.656H128.133V15.896H135.261C135.437 15.896 135.581 15.96 135.693 16.088C135.805 16.2 135.861 16.344 135.861 16.52V18.608C135.861 18.768 135.805 18.912 135.693 19.04C135.581 19.152 135.437 19.208 135.261 19.208H128.133V22.544H135.981C136.157 22.544 136.301 22.6 136.413 22.712C136.525 22.824 136.581 22.968 136.581 23.144V25.4C136.581 25.56 136.525 25.704 136.413 25.832C136.301 25.944 136.157 26 135.981 26H124.581ZM177.076 26.24C174.788 26.24 172.996 25.688 171.7 24.584C170.42 23.464 169.74 21.848 169.66 19.736C169.644 19.304 169.636 18.6 169.636 17.624C169.636 16.632 169.644 15.912 169.66 15.464C169.74 13.384 170.436 11.784 171.748 10.664C173.06 9.528 174.836 8.96 177.076 8.96C178.484 8.96 179.748 9.2 180.868 9.68C181.988 10.144 182.868 10.816 183.508 11.696C184.164 12.56 184.5 13.576 184.516 14.744V14.792C184.516 14.92 184.46 15.032 184.348 15.128C184.252 15.208 184.14 15.248 184.012 15.248H180.772C180.564 15.248 180.404 15.208 180.292 15.128C180.18 15.032 180.084 14.864 180.004 14.624C179.78 13.808 179.428 13.24 178.948 12.92C178.468 12.584 177.836 12.416 177.052 12.416C175.164 12.416 174.188 13.472 174.124 15.584C174.108 16.016 174.1 16.68 174.1 17.576C174.1 18.472 174.108 19.152 174.124 19.616C174.188 21.728 175.164 22.784 177.052 22.784C177.836 22.784 178.476 22.616 178.972 22.28C179.468 21.928 179.812 21.36 180.004 20.576C180.068 20.336 180.156 20.176 180.268 20.096C180.38 20 180.548 19.952 180.772 19.952H184.012C184.156 19.952 184.276 20 184.372 20.096C184.484 20.192 184.532 20.312 184.516 20.456C184.5 21.624 184.164 22.648 183.508 23.528C182.868 24.392 181.988 25.064 180.868 25.544C179.748 26.008 178.484 26.24 177.076 26.24ZM185.868 26C185.74 26 185.62 25.952 185.508 25.856C185.412 25.744 185.364 25.624 185.364 25.496C185.364 25.4 185.372 25.328 185.388 25.28L191.028 9.872C191.076 9.68 191.18 9.52 191.34 9.392C191.5 9.264 191.708 9.2 191.964 9.2H195.516C195.772 9.2 195.98 9.264 196.14 9.392C196.3 9.52 196.404 9.68 196.452 9.872L202.068 25.28L202.116 25.496C202.116 25.624 202.06 25.744 201.948 25.856C201.852 25.952 201.732 26 201.588 26H198.636C198.252 26 197.996 25.832 197.868 25.496L196.932 23.048H190.524L189.612 25.496C189.484 25.832 189.22 26 188.82 26H185.868ZM195.972 19.592L193.74 13.256L191.508 19.592H195.972ZM204.608 26C204.448 26 204.304 25.944 204.176 25.832C204.064 25.704 204.008 25.56 204.008 25.4V9.8C204.008 9.624 204.064 9.48 204.176 9.368C204.304 9.256 204.448 9.2 204.608 9.2H210.848C213.2 9.2 215.024 9.76 216.32 10.88C217.616 12 218.296 13.624 218.36 15.752C218.376 16.216 218.384 16.832 218.384 17.6C218.384 18.368 218.376 18.976 218.36 19.424C218.28 21.648 217.616 23.304 216.368 24.392C215.136 25.464 213.336 26 210.968 26H204.608ZM210.848 22.544C211.904 22.544 212.68 22.296 213.176 21.8C213.672 21.288 213.936 20.48 213.968 19.376C214 18.912 214.016 18.312 214.016 17.576C214.016 16.84 214 16.248 213.968 15.8C213.936 14.728 213.648 13.936 213.104 13.424C212.576 12.912 211.784 12.656 210.728 12.656H208.328V22.544H210.848ZM221.788 26C221.628 26 221.484 25.944 221.356 25.832C221.244 25.704 221.188 25.56 221.188 25.4V9.8C221.188 9.624 221.244 9.48 221.356 9.368C221.484 9.256 221.628 9.2 221.788 9.2H232.996C233.172 9.2 233.316 9.256 233.428 9.368C233.54 9.48 233.596 9.624 233.596 9.8V12.056C233.596 12.216 233.54 12.36 233.428 12.488C233.316 12.6 233.172 12.656 232.996 12.656H225.34V15.896H232.468C232.644 15.896 232.788 15.96 232.9 16.088C233.012 16.2 233.068 16.344 233.068 16.52V18.608C233.068 18.768 233.012 18.912 232.9 19.04C232.788 19.152 232.644 19.208 232.468 19.208H225.34V22.544H233.188C233.364 22.544 233.508 22.6 233.62 22.712C233.732 22.824 233.788 22.968 233.788 23.144V25.4C233.788 25.56 233.732 25.704 233.62 25.832C233.508 25.944 233.364 26 233.188 26H221.788ZM237.116 26C236.956 26 236.812 25.944 236.684 25.832C236.572 25.704 236.516 25.56 236.516 25.4V9.8C236.516 9.624 236.572 9.48 236.684 9.368C236.812 9.256 236.956 9.2 237.116 9.2H239.708C240.092 9.2 240.372 9.376 240.548 9.728L244.772 17.288L248.996 9.728C249.172 9.376 249.452 9.2 249.836 9.2H252.404C252.58 9.2 252.724 9.256 252.836 9.368C252.964 9.48 253.028 9.624 253.028 9.8V25.4C253.028 25.576 252.964 25.72 252.836 25.832C252.724 25.944 252.58 26 252.404 26H249.548C249.372 26 249.22 25.944 249.092 25.832C248.98 25.72 248.924 25.576 248.924 25.4V16.4L246.236 21.416C246.028 21.784 245.748 21.968 245.396 21.968H244.148C243.94 21.968 243.772 21.92 243.644 21.824C243.516 21.728 243.404 21.592 243.308 21.416L240.596 16.4V25.4C240.596 25.56 240.54 25.704 240.428 25.832C240.316 25.944 240.172 26 239.996 26H237.116ZM261.311 26C261.151 26 261.007 25.944 260.879 25.832C260.767 25.704 260.711 25.56 260.711 25.4V20.24L255.143 9.968C255.095 9.824 255.071 9.736 255.071 9.704C255.071 9.576 255.119 9.464 255.215 9.368C255.327 9.256 255.455 9.2 255.599 9.2H258.599C258.919 9.2 259.199 9.368 259.439 9.704L262.871 15.896L266.327 9.704C266.519 9.368 266.799 9.2 267.167 9.2H270.167C270.311 9.2 270.431 9.256 270.527 9.368C270.623 9.464 270.671 9.576 270.671 9.704C270.671 9.784 270.655 9.872 270.623 9.968L265.055 20.24V25.4C265.055 25.576 264.991 25.72 264.863 25.832C264.751 25.944 264.607 26 264.431 26H261.311Z" fill="#2B2B2B"/>
<path d="M143.818 26C143.626 26 143.446 25.928 143.278 25.784C143.134 25.616 143.062 25.436 143.062 25.244C143.062 25.1 143.074 24.992 143.098 24.92L151.558 1.808C151.63 1.52 151.786 1.28 152.026 1.088C152.266 0.895998 152.578 0.799998 152.962 0.799998H158.29C158.674 0.799998 158.986 0.895998 159.226 1.088C159.466 1.28 159.622 1.52 159.694 1.808L168.118 24.92L168.19 25.244C168.19 25.436 168.106 25.616 167.938 25.784C167.794 25.928 167.614 26 167.398 26H162.97C162.394 26 162.01 25.748 161.818 25.244L160.414 21.572H150.802L149.434 25.244C149.242 25.748 148.846 26 148.246 26H143.818ZM158.974 16.388L155.626 6.884L152.278 16.388H158.974Z" fill="#31DC9E"/>
</svg>
