<svg width="69" height="76" viewBox="0 0 69 76" fill="none" xmlns="http://www.w3.org/2000/svg">
<path opacity="0.25" d="M63.6766 25.186C69.2778 37.274 70.9848 49.2544 66.2372 58.6561C61.4895 68.0041 50.3405 74.8271 37.3777 75.8479C24.3617 76.9223 9.53186 72.3021 3.39723 62.0945C-2.68405 51.8869 -0.123512 36.1458 7.29139 22.9833C14.7063 9.82095 26.9222 -0.762699 37.8045 0.0431622C48.6335 0.849024 58.1288 13.0444 63.6766 25.186Z" fill="#FF7939"/>
<path d="M34.008 25.4673C27.0975 25.4673 21.4757 31.0895 21.4757 38C21.4762 44.9108 27.0982 50.5328 34.0085 50.5328C40.9185 50.5328 46.54 44.9108 46.54 38C46.54 31.0895 40.9182 25.4673 34.008 25.4673ZM34.0085 49.5328C27.65 49.5328 22.4762 44.3595 22.4757 38C22.4757 31.6408 27.649 26.4673 34.008 26.4673C40.3667 26.4673 45.54 31.6408 45.54 38C45.54 44.3595 40.367 49.5328 34.0085 49.5328ZM37.6348 39.2295L34.5085 41.9235V32.9855C34.5085 32.7095 34.2845 32.4855 34.0085 32.4855C33.7325 32.4855 33.5085 32.7095 33.5085 32.9855V41.9235L30.3818 39.2295C30.1725 39.0493 29.8565 39.0728 29.6765 39.282C29.4965 39.4913 29.5197 39.8073 29.729 39.9873L34.0085 43.6743L38.2875 39.9873C38.4967 39.8068 38.5203 39.4913 38.3398 39.282C38.1597 39.0728 37.844 39.0493 37.6348 39.2295Z" fill="#2B2B2B"/>
</svg>
