<svg width="821" height="814" viewBox="0 0 821 814" fill="none" xmlns="http://www.w3.org/2000/svg">
<path opacity="0.25" d="M484.337 298.907C489.83 331.697 493.013 369.058 487.367 420.387C481.722 471.716 467.248 537.015 428.382 570.018C389.691 603.33 327.091 604.482 276.664 582.43C226.236 560.377 187.981 515.121 143.45 474.639C98.9184 434.158 48.1109 398.451 31.5376 351.126C14.6551 303.976 32.7999 245.167 70.4016 209.208C108.178 173.557 165.412 160.757 206.695 119.043C248.153 77.6383 273.311 6.70265 307.533 -2.05286C341.929 -10.4994 385.214 42.9253 412.191 88.4434C439.343 134.27 450.671 172.325 460.305 205.22C469.938 238.115 478.535 266.293 484.337 298.907Z" fill="#FF7939"/>
<path opacity="0.15" d="M646.655 182.068C696.65 215.233 732.785 269.188 766.94 328.588C801.095 388.483 833.27 452.833 814.46 502.828C795.155 552.823 725.36 587.968 673.385 627.073C621.41 666.178 587.255 708.748 537.755 744.883C488.255 780.523 422.915 808.738 348.17 812.698C272.93 816.658 188.78 796.363 163.04 739.933C137.795 683.503 170.96 590.938 164.03 507.778C157.1 424.123 109.58 349.873 117.995 288.493C126.41 226.618 190.76 178.108 258.08 152.863C325.895 127.618 396.68 126.133 464.495 131.578C532.31 137.023 596.165 148.903 646.655 182.068Z" fill="#FF7939"/>
</svg>
