<svg width="118" height="151" viewBox="0 0 118 151" fill="none" xmlns="http://www.w3.org/2000/svg">
<path d="M77.4122 96.761V147.341L111.052 144.416V131.253L109.747 129.205L111.052 126.865V113.702L109.881 111.654L111.052 109.314V102.611C111.052 101.493 111.15 100.523 111.303 99.6861L77.4122 96.761Z" fill="#F4DAA7"/>
<path d="M80.3374 131.252H111.052V126.865H80.3374V113.701H111.052V109.314H80.3374V99.6857H111.303C111.878 96.5459 113.245 95.298 113.245 95.298L93.0867 76.2844L73.7557 95.298C73.7557 95.298 75.9496 97.2973 75.9496 102.611V148.803H111.052V144.416H80.3374V131.252Z" fill="#F0C87E"/>
<path d="M102.514 39.7203L100.065 34.7475L102.514 30.9448C102.514 30.9448 95.7357 21.4702 93.5003 6.9939C91.2651 21.4702 84.4873 30.9448 84.4873 30.9448L86.9356 34.7475L84.4873 39.7203L75.9493 48.4958L93.5003 52.8836L111.051 48.4958L102.514 39.7203Z" fill="#5F6C75"/>
<path d="M113.245 57.2713H111.052L108.126 55.0599L111.052 52.8836V48.4958H80.3373L75.9496 57.2713L73.0244 93.8359L115.439 90.9107V59.4652C115.439 58.2536 114.457 57.2713 113.245 57.2713Z" fill="#F8E7C7"/>
<path d="M75.9496 90.1059V57.2712H73.7557C72.5441 57.2712 71.5618 58.2535 71.5618 59.4651V93.1045C71.5618 94.3161 72.5441 95.2984 73.7557 95.2984H113.245C114.457 95.2984 115.439 94.3161 115.439 93.1045V90.9106H76.754C76.3097 90.9106 75.9496 90.5502 75.9496 90.1059Z" fill="#F4DAA7"/>
<path d="M80.3373 48.4958H75.9496V57.2713H111.052V52.8836H81.3611C80.7957 52.8836 80.3373 52.4252 80.3373 51.8598V48.4958Z" fill="#F4DAA7"/>
<path d="M102.514 35.3326L86.9356 36.7952L88.875 30.9448H102.514V35.3326Z" fill="#F8E7C7"/>
<path d="M88.875 30.9448H84.4872V39.7203H102.514V35.3326H89.8988C89.3334 35.3326 88.875 34.8742 88.875 34.3088V30.9448Z" fill="#F4DAA7"/>
<path d="M104.47 86.523H82.5312C81.3196 86.523 80.3373 85.5407 80.3373 84.3291V62.3904C80.3373 61.1788 81.3196 60.1965 82.5312 60.1965H104.47C105.681 60.1965 106.664 61.1788 106.664 62.3904V84.3291C106.664 85.5407 105.681 86.523 104.47 86.523Z" fill="#CF9875"/>
<path d="M93.5006 60.1965C90.6874 60.1965 88.0826 61.0817 85.9434 62.5849C84.4402 64.7241 82.3849 68.499 82.3849 71.3121C82.3849 78.5821 88.2783 84.4754 95.5482 84.4754C98.3613 84.4754 102.136 82.4202 104.275 80.9169C105.779 78.7777 106.664 76.1729 106.664 73.3598C106.664 66.0899 100.77 60.1965 93.5006 60.1965Z" fill="#E9EDF1"/>
<path d="M83.555 70.1421C83.555 67.329 84.4404 64.7241 85.9434 62.585C82.5543 64.9663 80.3373 68.903 80.3373 73.3598C80.3373 80.6297 86.2306 86.523 93.5005 86.523C97.9573 86.523 101.894 84.306 104.275 80.9169C102.136 82.4202 99.5313 83.3053 96.7182 83.3053C89.4483 83.3053 83.555 77.412 83.555 70.1421Z" fill="#C8D2DC"/>
<path d="M61.3238 131.252C61.3238 131.252 56.3744 121.778 54.7422 107.302C53.11 121.778 48.1606 131.252 48.1606 131.252L54.7422 134.565L61.3238 131.252Z" fill="#5F6C75"/>
<path d="M27.4246 131.252C27.4246 131.252 22.4753 121.778 20.843 107.302C19.2108 121.778 14.2614 131.252 14.2614 131.252L20.843 134.565L27.4246 131.252Z" fill="#5F6C75"/>
<path d="M18.6492 148.803H27.845L37.7019 146.627L52.5483 148.803H61.3235L61.3238 131.252H52.5483L49.593 145.767L27.4247 140.028V131.252H18.6492L15.724 140.064L18.6492 148.803Z" fill="#F8E7C7"/>
<path d="M18.6492 131.252V148.803H14.2614V131.252H18.6492ZM48.1605 131.252V140.028L46.0026 140.905L43.7728 140.028H27.4246V148.803H43.7728L45.484 148.218L48.1605 148.803H52.5483V131.252H48.1605Z" fill="#F4DAA7"/>
<path d="M43.7728 140.028H48.1605V148.804H43.7728V140.028Z" fill="#F0C87E"/>
<path d="M111.052 150.997C109.84 150.997 108.858 150.015 108.858 148.803V133.446H101.545V148.803C101.545 150.015 100.563 150.997 99.3509 150.997C98.139 150.997 97.157 150.015 97.157 148.803V133.446H89.8441V148.803C89.8441 150.015 88.8621 150.997 87.6502 150.997C86.4383 150.997 85.4564 150.015 85.4564 148.803V133.446H78.1435V148.803C78.1435 150.015 77.1615 150.997 75.9496 150.997H61.3235C60.7417 150.997 60.1838 150.766 59.772 150.355C59.3607 149.943 59.1296 149.385 59.1296 148.803L59.1299 133.446H50.3544L50.3541 148.803C50.3541 150.015 49.3719 150.997 48.1603 150.997C46.9484 150.997 45.9664 150.015 45.9664 148.803V142.222H39.9865V148.803C39.9865 150.015 39.0045 150.997 37.7926 150.997C36.5807 150.997 35.5987 150.015 35.5987 148.803V142.222H29.6188V148.803C29.6188 150.015 28.6368 150.997 27.4249 150.997C26.213 150.997 25.2311 150.015 25.2311 148.803V133.446H16.4556V148.803C16.4556 150.015 15.4736 150.997 14.2617 150.997H2.56106C1.34916 150.997 0.367188 150.015 0.367188 148.803C0.367188 147.592 1.34916 146.61 2.56106 146.61H12.0678V131.252C12.0678 130.899 12.1533 130.55 12.3174 130.237C12.3636 130.147 17.0743 120.959 18.6495 107.177V103.499C18.6495 102.287 19.6314 101.305 20.8433 101.305C22.0552 101.305 23.0372 102.287 23.0372 103.499V107.178C24.6127 120.959 29.3228 130.147 29.3705 130.239C29.5328 130.551 29.6188 130.9 29.6188 131.252V137.834H35.5987V131.252C35.5987 130.041 36.5807 129.059 37.7926 129.059C39.0045 129.059 39.9865 130.041 39.9865 131.252V137.834H45.9667V131.252C45.9667 131.25 45.9667 131.248 45.9667 131.246C45.9667 131.246 45.9667 131.245 45.9667 131.245C45.9667 131.243 45.9667 131.241 45.9667 131.239C45.9667 131.238 45.9667 131.238 45.9667 131.237C45.9667 131.236 45.9667 131.234 45.9667 131.233C45.9667 131.231 45.9667 131.23 45.9667 131.228C45.9667 131.228 45.9667 131.227 45.967 131.227C45.9711 130.86 46.0652 130.514 46.2288 130.212C46.5005 129.676 51.0129 120.608 52.5483 107.177V103.499C52.5483 102.287 53.5303 101.305 54.7422 101.305C55.9541 101.305 56.936 102.287 56.936 103.499V107.177C58.47 120.598 62.9771 129.662 63.2561 130.213C63.4205 130.517 63.5147 130.865 63.5176 131.236V131.236V131.24V131.245V131.246V131.252L63.5173 146.61H73.7557V102.611C73.7557 99.6818 73.0148 98.0492 72.5652 97.3282C70.7223 96.8081 69.368 95.1115 69.368 93.1045V59.4652C69.368 57.0458 71.3363 55.0774 73.7557 55.0774V48.4958C73.7557 47.9242 73.9786 47.3755 74.377 46.966L82.2934 38.8293V30.9448C82.2934 30.487 82.4364 30.0407 82.7029 29.6683C82.7658 29.5797 89.159 20.4698 91.3064 6.82395V3.19119C91.3064 1.97958 92.2884 0.997314 93.5003 0.997314C94.7122 0.997314 95.6941 1.97958 95.6941 3.19119V6.82395C97.8412 20.4698 104.234 29.5797 104.299 29.6706C104.563 30.0421 104.707 30.4888 104.707 30.9448V38.8293L112.624 46.966C113.022 47.3755 113.245 47.9242 113.245 48.4958V55.0774C115.665 55.0774 117.633 57.0458 117.633 59.4652V67.5094C117.633 68.721 116.651 69.7032 115.439 69.7032C114.227 69.7032 113.245 68.721 113.245 67.5094V59.4652H107.009C105.797 59.4652 104.815 58.4829 104.815 57.2713C104.815 56.0597 105.797 55.0774 107.009 55.0774H108.857V50.6897H78.1432V55.0774H79.991C81.2029 55.0774 82.1849 56.0597 82.1849 57.2713C82.1849 58.4829 81.2029 59.4652 79.991 59.4652H73.7557V93.1045H113.245V76.2849C113.245 75.0733 114.227 74.091 115.439 74.091C116.651 74.091 117.633 75.0733 117.633 76.2849V93.1045C117.633 95.1115 116.279 96.8081 114.436 97.3282C113.986 98.0492 113.245 99.6818 113.245 102.611V148.804C113.245 150.015 112.263 150.997 111.052 150.997ZM101.545 129.059H108.858V115.895H101.545V117.229C101.545 118.441 100.563 119.423 99.3509 119.423C98.139 119.423 97.157 118.441 97.157 117.229V115.895H89.8441V129.059H97.157V126.005C97.157 124.793 98.139 123.811 99.3509 123.811C100.563 123.811 101.545 124.793 101.545 126.005V129.059ZM78.1435 129.059H85.4564V115.895H78.1435V129.059ZM51.5529 129.059H57.9315C57.0223 126.838 55.8227 123.536 54.7425 119.361C53.6616 123.536 52.4623 126.838 51.5529 129.059ZM17.6537 129.059H24.0326C23.1232 126.838 21.9239 123.536 20.8433 119.36C19.7625 123.536 18.5632 126.838 17.6537 129.059ZM101.545 111.508H108.858V102.611C108.858 100.497 109.171 98.8077 109.593 97.492H77.4084C77.8299 98.8077 78.1435 100.497 78.1435 102.611V111.508H85.4564V104.074C85.4564 102.862 86.4383 101.88 87.6502 101.88C88.8621 101.88 89.8441 102.862 89.8441 104.074V111.508H97.157V104.074C97.157 102.862 98.139 101.88 99.3509 101.88C100.563 101.88 101.545 102.862 101.545 104.074V111.508ZM114.77 96.8754C114.77 96.8754 114.77 96.8754 114.77 96.8754V96.8754ZM81.145 46.3019H105.856L101.587 41.9142H99.3509C98.139 41.9142 97.157 40.9319 97.157 39.7203C97.157 38.5087 98.139 37.5265 99.3509 37.5265H100.32V33.1387H86.6814V37.5265H90.5757C91.7876 37.5265 92.7696 38.5087 92.7696 39.7203C92.7696 40.9319 91.7876 41.9142 90.5757 41.9142H85.4139L81.145 46.3019ZM88.4008 28.751H98.6003C97.1184 26.0756 95.127 21.9511 93.5006 16.7028C91.8742 21.9511 89.8827 26.0753 88.4008 28.751ZM93.5006 88.7168C88.4137 88.7168 83.897 86.231 81.1005 82.4101C81.0604 82.3628 81.0218 82.3133 80.9853 82.2618C80.9499 82.2124 80.9171 82.1618 80.8864 82.1103C79.1576 79.626 78.1432 76.609 78.1432 73.3594C78.1432 64.8913 85.0325 58.0023 93.5003 58.0023C101.968 58.0023 108.857 64.8913 108.857 73.3594C108.857 81.8275 101.968 88.7168 93.5006 88.7168ZM86.0183 81.3741C87.9796 83.2061 90.6114 84.3291 93.5006 84.3291C99.5492 84.3291 104.47 79.4083 104.47 73.3597C104.47 68.0625 100.695 63.63 95.6944 62.6106V69.1065L95.979 68.9041C96.9675 68.2015 98.3364 68.4331 99.0385 69.4201C99.7408 70.4073 99.5097 71.7772 98.5225 72.4792L95.6944 74.4909V76.2846C95.6944 77.4962 94.7125 78.4784 93.5006 78.4784C92.695 78.4784 91.9906 78.0441 91.6091 77.397L86.0183 81.3741ZM91.3067 62.6106C86.3058 63.63 82.5312 68.0622 82.5312 73.3597C82.5312 74.9399 82.867 76.4431 83.4711 77.8016L91.3067 72.2277V62.6106Z" fill="black"/>
</svg>
