<svg width="146" height="146" viewBox="0 0 146 146" fill="none" xmlns="http://www.w3.org/2000/svg">
<path d="M98.7812 111.022L94.3187 101.122C92.4273 96.5168 90.7539 91.8223 89.3031 87.0598L86.7555 77.6848C83.8633 65.6075 82.375 53.1504 82.375 40.5622V30.8098H63.625V40.5622C63.625 53.1528 62.1367 65.6075 59.2445 77.6848L56.6969 87.0598C55.2461 91.8223 53.5703 96.5168 51.6812 101.122L47.4766 110.497C41.7742 122.19 34.6234 133.22 26.125 143.31H54.25V138.622C54.25 128.268 62.6453 119.872 73 119.872C83.3547 119.872 91.75 128.268 91.75 138.622V143.31H119.875C111.505 133.37 104.441 122.521 98.7812 111.022Z" fill="#A8B0BC"/>
<path d="M63.625 21.4348H82.375V30.8098H63.625V21.4348Z" fill="#4D5D7A"/>
<path d="M68.3125 12.0598H77.6875V21.4348H68.3125V12.0598Z" fill="#8892A0"/>
<path d="M40.1875 101.122H105.812V110.497H40.1875V101.122Z" fill="#4D5D7A"/>
<path d="M49.5625 77.6848H96.4375V87.0598H49.5625V77.6848Z" fill="#4D5D7A"/>
<path d="M12.0625 129.247C17.2402 129.247 21.4375 125.05 21.4375 119.872C21.4375 114.695 17.2402 110.497 12.0625 110.497C6.88483 110.497 2.6875 114.695 2.6875 119.872C2.6875 125.05 6.88483 129.247 12.0625 129.247Z" fill="#78B75B"/>
<path d="M133.938 129.247C139.115 129.247 143.312 125.05 143.312 119.872C143.312 114.695 139.115 110.497 133.938 110.497C128.76 110.497 124.562 114.695 124.562 119.872C124.562 125.05 128.76 129.247 133.938 129.247Z" fill="#78B75B"/>
<path d="M33.1562 58.9348C33.0766 58.9348 33.0016 58.9559 32.9219 58.9583C31.8461 53.5981 27.1141 49.5598 21.4375 49.5598C15.7609 49.5598 11.0289 53.5981 9.95312 58.9583C9.87344 58.9559 9.79844 58.9348 9.71875 58.9348C5.83516 58.9348 2.6875 62.0825 2.6875 65.9661C2.6875 69.8497 5.83516 72.9973 9.71875 72.9973C11.6898 72.9973 13.4641 72.1817 14.7414 70.8762C16.6422 72.2051 18.9438 72.9973 21.4375 72.9973C23.9312 72.9973 26.2328 72.2051 28.1336 70.8762C29.4109 72.1817 31.1852 72.9973 33.1562 72.9973C37.0398 72.9973 40.1875 69.8497 40.1875 65.9661C40.1875 62.0825 37.0398 58.9348 33.1562 58.9348Z" fill="#A1CDFB"/>
<path d="M136.281 58.9348C136.202 58.9348 136.127 58.9559 136.047 58.9583C134.971 53.5981 130.239 49.5598 124.562 49.5598C118.886 49.5598 114.154 53.5981 113.078 58.9583C112.998 58.9559 112.923 58.9348 112.844 58.9348C108.96 58.9348 105.812 62.0825 105.812 65.9661C105.812 69.8497 108.96 72.9973 112.844 72.9973C114.815 72.9973 116.589 72.1817 117.866 70.8762C119.767 72.2051 122.069 72.9973 124.562 72.9973C127.056 72.9973 129.358 72.2051 131.259 70.8762C132.536 72.1817 134.31 72.9973 136.281 72.9973C140.165 72.9973 143.312 69.8497 143.312 65.9661C143.312 62.0825 140.165 58.9348 136.281 58.9348Z" fill="#A1CDFB"/>
<path d="M0.34375 140.966H145.656V145.654H0.34375V140.966Z" fill="black"/>
<path d="M12.0625 131.591C5.60078 131.591 0.34375 126.334 0.34375 119.872C0.34375 113.411 5.60078 108.154 12.0625 108.154C18.5242 108.154 23.7812 113.411 23.7812 119.872C23.7812 126.334 18.5242 131.591 12.0625 131.591ZM12.0625 112.841C8.18594 112.841 5.03125 115.996 5.03125 119.872C5.03125 123.749 8.18594 126.904 12.0625 126.904C15.9391 126.904 19.0938 123.749 19.0938 119.872C19.0938 115.996 15.9391 112.841 12.0625 112.841Z" fill="black"/>
<path d="M9.71875 117.529H14.4062V143.31H9.71875V117.529Z" fill="black"/>
<path d="M133.938 131.591C127.476 131.591 122.219 126.334 122.219 119.872C122.219 113.411 127.476 108.154 133.938 108.154C140.399 108.154 145.656 113.411 145.656 119.872C145.656 126.334 140.399 131.591 133.938 131.591ZM133.938 112.841C130.061 112.841 126.906 115.996 126.906 119.872C126.906 123.749 130.061 126.904 133.938 126.904C137.814 126.904 140.969 123.749 140.969 119.872C140.969 115.996 137.814 112.841 133.938 112.841Z" fill="black"/>
<path d="M131.594 117.529H136.281V143.31H131.594V117.529Z" fill="black"/>
<path d="M82.375 33.1536H63.625C62.3313 33.1536 61.2812 32.1059 61.2812 30.8098V21.4348C61.2812 20.1387 62.3313 19.0911 63.625 19.0911H82.375C83.6688 19.0911 84.7188 20.1387 84.7188 21.4348V30.8098C84.7188 32.1059 83.6688 33.1536 82.375 33.1536ZM65.9688 28.4661H80.0312V23.7786H65.9688V28.4661Z" fill="black"/>
<path d="M80.0312 21.4348H75.3438V14.4036H70.6562V21.4348H65.9688V12.0598C65.9688 10.7637 67.0188 9.71606 68.3125 9.71606H77.6875C78.9812 9.71606 80.0312 10.7637 80.0312 12.0598V21.4348Z" fill="black"/>
<path d="M70.6562 0.341064H75.3438V12.0598H70.6562V0.341064Z" fill="black"/>
<path d="M27.918 144.821L24.332 141.8C32.6406 131.933 39.7187 121.056 45.3695 109.471L49.5836 111.526C43.7617 123.456 36.475 134.659 27.918 144.821Z" fill="black"/>
<path d="M53.8516 102.013L49.5133 100.232C51.3696 95.7107 53.0313 91.049 54.4539 86.3779L58.9375 87.742C57.4727 92.5561 55.7617 97.3561 53.8516 102.013Z" fill="black"/>
<path d="M61.525 78.2286L56.9664 77.1387C59.8281 65.1762 61.2813 52.8692 61.2813 40.5598V30.8098H65.9688V40.5598C65.9688 53.2348 64.4735 65.9098 61.525 78.2286Z" fill="black"/>
<path d="M118.082 144.822C109.656 134.811 102.454 123.789 96.679 112.058L100.884 109.989C106.492 121.377 113.484 132.081 121.668 141.798L118.082 144.822Z" fill="black"/>
<path d="M92.1485 102.013C90.2406 97.3606 88.5274 92.5583 87.0602 87.7442L91.5438 86.3755C92.9688 91.0513 94.6328 95.713 96.4867 100.232L92.1485 102.013Z" fill="black"/>
<path d="M84.475 78.2286C81.5266 65.9098 80.0312 53.2348 80.0312 40.5598V30.8098H84.7187V40.5598C84.7187 52.8692 86.1719 65.1762 89.0336 77.1387L84.475 78.2286Z" fill="black"/>
<path d="M94.0938 143.31H89.4062V138.622C89.4062 129.578 82.0469 122.216 73 122.216C63.9531 122.216 56.5938 129.578 56.5938 138.622V143.31H51.9062V138.622C51.9062 126.99 61.3703 117.529 73 117.529C84.6297 117.529 94.0938 126.99 94.0938 138.622V143.31Z" fill="black"/>
<path d="M105.812 112.841H40.1875C38.8938 112.841 37.8438 111.793 37.8438 110.497V101.122C37.8438 99.8262 38.8938 98.7786 40.1875 98.7786H105.812C107.106 98.7786 108.156 99.8262 108.156 101.122V110.497C108.156 111.793 107.106 112.841 105.812 112.841ZM42.5312 108.154H103.469V103.466H42.5312V108.154Z" fill="black"/>
<path d="M96.4375 89.4036H49.5625C48.2688 89.4036 47.2188 88.3559 47.2188 87.0598V77.6848C47.2188 76.3887 48.2688 75.3411 49.5625 75.3411H96.4375C97.7313 75.3411 98.7812 76.3887 98.7812 77.6848V87.0598C98.7812 88.3559 97.7313 89.4036 96.4375 89.4036ZM51.9062 84.7161H94.0938V80.0286H51.9062V84.7161Z" fill="black"/>
<path d="M61.4121 100.322L66.0966 86.2541L70.545 87.7353L65.8605 101.804L61.4121 100.322Z" fill="black"/>
<path d="M75.47 87.8479L79.9184 86.3667L84.6029 100.435L80.1544 101.916L75.47 87.8479Z" fill="black"/>
<path d="M61.9574 32.4727L65.2715 29.1586L84.0191 47.9062L80.705 51.2203L61.9574 32.4727Z" fill="black"/>
<path d="M61.9574 47.9062L80.7051 29.1586L84.0191 32.4727L65.2715 51.2203L61.9574 47.9062Z" fill="black"/>
<path d="M61.9561 51.2188L65.2701 47.9047L87.0054 69.64L83.6913 72.954L61.9561 51.2188Z" fill="black"/>
<path d="M58.9668 69.6426L80.7021 47.9073L84.0162 51.2214L62.2809 72.9566L58.9668 69.6426Z" fill="black"/>
<path d="M33.1562 75.3411C31.2625 75.3411 29.4578 74.7833 27.925 73.7426C23.9219 75.8403 18.9555 75.8403 14.9523 73.7426C13.4172 74.7833 11.6125 75.3411 9.71875 75.3411C4.54844 75.3411 0.34375 71.1364 0.34375 65.9661C0.34375 61.3348 3.71641 57.4817 8.13203 56.727C10.0516 51.1208 15.3836 47.2161 21.4375 47.2161C27.4914 47.2161 32.8234 51.1208 34.743 56.727C39.1586 57.4817 42.5312 61.3348 42.5312 65.9661C42.5312 71.1364 38.3266 75.3411 33.1562 75.3411ZM28.1313 68.5348C28.7453 68.5348 29.3523 68.7762 29.807 69.2403C30.7023 70.1497 31.8906 70.6536 33.1562 70.6536C35.7414 70.6536 37.8438 68.5512 37.8438 65.9661C37.8438 63.4114 35.793 61.3278 33.25 61.2786C33.1164 61.295 32.9992 61.302 32.9219 61.302C31.8086 61.302 30.8453 60.5168 30.625 59.42C29.7484 55.0653 25.8859 51.9036 21.4375 51.9036C16.9891 51.9036 13.1266 55.0653 12.25 59.42C12.025 60.5403 10.9961 61.3137 9.88516 61.302C9.79609 61.2973 9.60156 61.2786 9.51484 61.2668C7.13359 61.2786 5.03125 63.3809 5.03125 65.9661C5.03125 68.5512 7.13359 70.6536 9.71875 70.6536C10.9844 70.6536 12.1727 70.1497 13.068 69.2379C13.8695 68.4176 15.1445 68.3004 16.0844 68.9567C19.2602 71.1762 23.6148 71.1762 26.7906 68.9567C27.1984 68.6731 27.6672 68.5348 28.1313 68.5348Z" fill="black"/>
<path d="M136.281 75.3411C134.388 75.3411 132.583 74.7833 131.05 73.7426C127.047 75.8403 122.08 75.8403 118.077 73.7426C116.542 74.7833 114.738 75.3411 112.844 75.3411C107.673 75.3411 103.469 71.1364 103.469 65.9661C103.469 61.3348 106.841 57.4817 111.257 56.727C113.177 51.1208 118.509 47.2161 124.562 47.2161C130.616 47.2161 135.948 51.1208 137.868 56.727C142.284 57.4817 145.656 61.3348 145.656 65.9661C145.656 71.1364 141.452 75.3411 136.281 75.3411ZM131.256 68.5348C131.87 68.5348 132.477 68.7762 132.932 69.2403C133.827 70.1497 135.016 70.6536 136.281 70.6536C138.866 70.6536 140.969 68.5512 140.969 65.9661C140.969 63.4114 138.918 61.3278 136.375 61.2786C136.241 61.295 136.127 61.302 136.047 61.302C134.934 61.302 133.97 60.5168 133.75 59.42C132.873 55.0653 129.011 51.9036 124.562 51.9036C120.114 51.9036 116.252 55.0653 115.375 59.42C115.15 60.5403 114.135 61.3137 113.01 61.302C112.921 61.2973 112.727 61.2786 112.64 61.2668C110.259 61.2786 108.156 63.3809 108.156 65.9661C108.156 68.5512 110.259 70.6536 112.844 70.6536C114.109 70.6536 115.298 70.1497 116.193 69.2379C116.992 68.4176 118.27 68.3004 119.209 68.9567C122.385 71.1762 126.74 71.1762 129.916 68.9567C130.323 68.6731 130.792 68.5348 131.256 68.5348Z" fill="black"/>
</svg>
