<svg width="344" height="344" viewBox="0 0 344 344" fill="none" xmlns="http://www.w3.org/2000/svg">
<g opacity="0.15" filter="url(#filter0_d)">
<path d="M172 300C244.902 300 304 240.902 304 168C304 95.0984 244.902 36 172 36C99.0984 36 40 95.0984 40 168C40 240.902 99.0984 300 172 300Z" fill="#F0F0F0"/>
<path d="M295.79 213.913C301.096 199.613 304 184.146 304 168C304 151.854 301.096 136.387 295.79 122.087H48.2103C42.9045 136.387 40 151.854 40 168C40 184.146 42.9045 199.613 48.2103 213.913L172 225.391L295.79 213.913Z" fill="#0052B4"/>
<path d="M172 300C228.755 300 277.139 264.179 295.789 213.913H48.2101C66.8608 264.179 115.244 300 172 300Z" fill="#D80027"/>
</g>
<defs>
<filter id="filter0_d" x="0" y="0" width="344" height="344" filterUnits="userSpaceOnUse" color-interpolation-filters="sRGB">
<feFlood flood-opacity="0" result="BackgroundImageFix"/>
<feColorMatrix in="SourceAlpha" type="matrix" values="0 0 0 0 0 0 0 0 0 0 0 0 0 0 0 0 0 0 127 0"/>
<feOffset dy="4"/>
<feGaussianBlur stdDeviation="20"/>
<feColorMatrix type="matrix" values="0 0 0 0 0 0 0 0 0 0 0 0 0 0 0 0 0 0 1 0"/>
<feBlend mode="normal" in2="BackgroundImageFix" result="effect1_dropShadow"/>
<feBlend mode="normal" in="SourceGraphic" in2="effect1_dropShadow" result="shape"/>
</filter>
</defs>
</svg>
