<svg width="150" height="151" viewBox="0 0 150 151" fill="none" xmlns="http://www.w3.org/2000/svg">
<path d="M147.732 118.071H2.26846V148.802H147.732V118.071Z" fill="#FF5352"/>
<path d="M111.805 92.022H93.5124V118.071H111.805V92.022Z" fill="#FF5352"/>
<path d="M139.024 58.3633H120.732V118.071H139.024V58.3633Z" fill="#FF5352"/>
<path d="M147.732 118.071V148.802H109.976V123.924H96.9835C96.9835 123.924 100.56 121.281 104.798 118.071H120.732V103.153L131.634 85.0793L139.025 97.331V118.071H147.732Z" fill="#F23030"/>
<path d="M143.295 53.9294C134.388 49.5483 131.744 42.5358 123.063 38.0596C122.961 38.1211 122.862 38.1855 122.757 38.2441C119.878 39.8502 117.598 41.5081 116.335 43.9137C124.392 47.8395 127.339 53.9115 134.145 58.3635H139.025C140.867 56.9613 142.34 55.6336 143.295 53.9294Z" fill="#FF5352"/>
<path d="M97.1989 70.7566C96.6958 71.1782 96.1448 71.564 95.538 71.9024C93.402 73.0939 91.5964 74.315 90.2906 75.8478L106.464 92.0214H111.805C113.183 90.9732 114.352 89.9654 115.255 88.8123L97.1989 70.7566Z" fill="#EDCE83"/>
<path d="M36.2197 61.0848C25.0113 72.2932 18.5186 65.8646 7.33624 76.9757C7.817 77.4049 8.32208 77.8327 8.85382 78.2657H30.8051C34.8246 75.2082 37.3904 72.4514 37.3904 66.7195C37.3904 64.473 36.9797 62.6396 36.2259 61.0769L36.2197 61.0848Z" fill="#81C784"/>
<path d="M85.6831 91.7292V118.071H24.8051V91.7292L30.8051 79.9457L49.0978 44.0219V31.4365H60.1465V44.0219L85.6831 91.7292Z" fill="#FF5352"/>
<path d="M43.244 66.7194C43.244 73.8696 40.1473 77.9963 36.6586 81.0549V118.071H24.8051V91.7292L41.5992 58.7498C42.7055 61.1263 43.244 63.737 43.244 66.7194Z" fill="#F23030"/>
<path d="M30.8051 78.2656H8.85379V118.07H30.8051V78.2656Z" fill="#FF5352"/>
<path d="M85.6831 91.7292V96.2014C84.7084 98.0629 83.4032 99.5819 81.9513 100.913V118.071H51.9513V100.82C49.0187 98.0189 46.6421 94.5186 46.4751 89.2065C46.1883 80.1947 51.6235 75.9244 56.9795 72.9361C58.9696 71.827 59.2682 69.9303 59.2682 68.8999V62.979L70.3609 63.105L85.6831 91.7292Z" fill="#F23030"/>
<path d="M68.7805 68.9421H65.122C65.122 72.6292 63.343 76.0894 59.8301 78.0491C55.2193 80.621 52.144 83.3263 52.3245 89.0216C52.4575 93.2087 54.6179 95.5718 57.8048 98.1681H76.0977C79.4472 95.6205 81.5856 93.323 81.5856 88.5461C81.5856 83.1048 78.6946 80.5669 74.2872 78.0461C70.9667 76.1474 68.7805 72.7671 68.7805 68.9421Z" fill="#80D8FF"/>
<path d="M55.7563 13.9007L53.5611 13.8752C53.5611 16.0875 52.4939 18.1889 50.3862 19.3649C47.6197 20.9083 45.7746 22.5313 45.883 25.9485C45.9627 28.461 47.1858 29.8787 49.098 31.4364H60.1468C62.1565 29.9077 63.4394 28.5292 63.4394 25.6631C63.4394 22.3986 61.7048 20.8754 59.0604 19.3631C57.0677 18.2238 55.7563 16.1956 55.7563 13.9007Z" fill="#E9B875"/>
<path d="M36.2259 61.0768C34.9521 58.4371 32.6974 56.5715 29.7873 54.8008C19.1751 65.0242 13.3609 59.8656 2.70587 70.2259C3.4462 72.9482 5.09591 74.9778 7.33624 76.9759C18.5186 65.8648 25.0113 72.2934 36.2197 61.085L36.2259 61.0768Z" fill="white"/>
<path d="M28.6324 54.1192C24.6478 51.8408 22.0245 47.7843 22.0245 43.1941H17.6344C17.6344 47.6185 15.4995 51.7708 11.284 54.1227C5.75127 57.2091 2.06103 60.4555 2.27754 67.2899C2.31152 68.3613 2.46211 69.329 2.70615 70.2252C13.3608 59.8652 19.1751 65.0235 29.7876 54.8001C29.4126 54.5721 29.0282 54.3454 28.6324 54.1192Z" fill="#81C784"/>
<path d="M88.0321 82.8753C88.1652 87.0624 90.3255 89.4255 93.5124 92.0218H106.464L90.2901 75.8481C88.7772 77.6238 87.9352 79.8185 88.0321 82.8753Z" fill="#81C784"/>
<path d="M117.293 82.3997C117.293 76.9584 114.402 74.4204 109.995 71.8997C106.674 70.0007 104.488 66.6207 104.488 62.7954H100.829C100.829 65.8455 99.6082 68.738 97.1985 70.7563L115.254 88.8119C116.547 87.1619 117.293 85.2116 117.293 82.3997Z" fill="#81C784"/>
<path d="M143.295 53.9294C144.076 52.5354 144.512 50.8904 144.512 48.7412C144.512 43.2999 141.621 40.7619 137.214 38.2412C133.893 36.3422 131.707 32.92 131.707 29.0947H128.049C128.049 32.6713 126.37 36.0697 123.063 38.0593C131.744 42.5358 134.388 49.548 143.295 53.9294Z" fill="#81C784"/>
<path d="M116.335 43.9133C115.576 45.3603 115.184 47.0774 115.252 49.2167C115.385 53.4038 117.545 55.7668 120.732 58.3631H134.145C127.34 53.9115 124.392 47.8391 116.335 43.9133Z" fill="#81C784"/>
<path d="M30.8051 78.2656H8.85379V84.1191H30.8051V78.2656Z" fill="#F23030"/>
<path d="M58.0435 24.9972H51.3047C49.459 24.9972 47.707 24.0793 46.7405 22.5067C46.7309 22.4909 46.7212 22.4751 46.7115 22.4592C46.1411 23.3903 45.8364 24.5088 45.8821 25.9482C45.9618 28.4607 47.185 29.8784 49.0969 31.4361H60.1456C62.1554 29.9074 63.4383 28.529 63.4383 25.6628C63.4383 24.3451 63.1517 23.3144 62.6408 22.4504C62.635 22.4601 62.6294 22.4698 62.6235 22.4794C61.6676 24.0711 59.9007 24.9972 58.0435 24.9972Z" fill="#DA9D4F"/>
<path d="M60.1465 31.4365H49.0977V37.29H60.1465V31.4365Z" fill="#F23030"/>
<path d="M76.0978 98.168H57.8051V118.071H76.0978V98.168Z" fill="#FF5352"/>
<path d="M139.024 58.3633H120.732V64.2168H139.024V58.3633Z" fill="#F23030"/>
<path d="M111.805 92.022H93.5124V97.8755H111.805V92.022Z" fill="#F23030"/>
<path d="M76.0978 98.168H57.8051V104.021H76.0978V98.168Z" fill="#F23030"/>
<path d="M37.3904 66.7194C37.3904 65.7696 37.3128 64.8975 37.171 64.0845C37.0591 64.0965 36.9917 64.1088 36.9888 64.1208C35.8043 68.866 31.4265 72.1194 26.5354 72.1194H13.5826C11.6388 73.221 9.58214 74.7441 7.33624 76.976C7.817 77.4052 8.32208 77.8329 8.85382 78.2659H30.8051C34.8246 75.2085 37.3904 72.4517 37.3904 66.7194Z" fill="#4CAF50"/>
<path d="M72.5657 91.7291H61.3896C58.5586 91.7291 55.8551 90.426 54.1898 88.1368C53.5664 87.2795 53.0807 86.357 52.7605 85.3108C52.4347 86.3945 52.2803 87.6167 52.3248 89.0218C52.4578 93.2089 54.6182 95.572 57.8051 98.1683H76.0978C79.4473 95.6207 81.5857 93.3232 81.5857 88.5463C81.5857 87.3455 81.4441 86.2864 81.1772 85.3372C81.1386 85.4743 81.0976 85.6087 81.0539 85.7409C79.8577 89.359 76.377 91.7291 72.5657 91.7291Z" fill="#40C4FF"/>
<path d="M67.6465 68.9421H66.2564C66.2564 72.6292 65.5802 76.0894 64.2454 78.0491C62.4935 80.621 61.3248 83.3263 61.3934 89.0216C61.4438 93.2087 62.2649 95.5718 63.4758 98.1681H70.4271C71.7 95.6205 72.5124 93.323 72.5124 88.5461C72.5124 83.1048 71.4138 80.5669 69.7389 78.0461C68.4771 76.1474 67.6465 72.7671 67.6465 68.9421Z" fill="white"/>
<path d="M61.5565 91.7292C61.8583 94.3457 62.5532 96.1906 63.4758 98.1684H70.4271C71.3792 96.2626 72.0732 94.4966 72.363 91.7292H61.5565Z" fill="#D8D7DA"/>
<path d="M115.254 82.666C115.245 82.6774 115.236 82.6892 115.227 82.7006C113.616 84.7397 111.117 85.8752 108.519 85.8752H96.9281C94.2829 85.8752 91.7625 84.6834 90.1363 82.5975C89.3675 81.611 88.7824 80.5455 88.4262 79.3071C88.1288 80.3554 87.9897 81.5319 88.0321 82.8752C88.1652 87.0623 90.3255 89.4254 93.5124 92.0217H111.805C113.183 90.9734 114.351 89.9656 115.254 88.8125C116.547 87.1622 117.293 85.2116 117.293 82.3997C117.293 81.2595 117.164 80.2479 116.923 79.3361C116.581 80.6243 116.013 81.6978 115.254 82.666Z" fill="#4CAF50"/>
<path d="M108.519 85.8753H100.317L106.463 92.0218H111.805C113.182 90.9735 114.351 89.9657 115.254 88.8126L111.717 85.2759C110.709 85.6682 109.623 85.8753 108.519 85.8753Z" fill="#EABE5C"/>
<path d="M143.295 47.4904C143.227 47.6123 143.156 47.7318 143.083 47.8502C141.478 50.428 138.59 51.9242 135.554 51.9242H124.308C121.483 51.9242 118.787 50.6234 117.123 48.3409C116.498 47.4828 116.01 46.5591 115.689 45.5117C115.364 46.5945 115.207 47.8133 115.252 49.2169C115.385 53.404 117.545 55.7671 120.732 58.3634H139.025C140.867 56.9618 142.34 55.6338 143.295 53.9296C144.076 52.5356 144.512 50.8906 144.512 48.7414C144.512 47.5364 144.37 46.4744 144.101 45.5228C143.9 46.2374 143.632 46.8893 143.295 47.4904Z" fill="#4CAF50"/>
<path d="M135.554 51.9241H126.697C128.942 54.1706 131.176 56.4209 134.145 58.3633H139.025C140.867 56.9617 142.34 55.6337 143.295 53.9295C141.657 53.1235 140.231 52.2282 138.94 51.2764C137.877 51.6985 136.727 51.9241 135.554 51.9241Z" fill="#F23030"/>
<path d="M85.6831 112.217H8.85379V118.07H85.6831V112.217Z" fill="#F23030"/>
<path d="M111.805 112.217H93.5124V118.07H111.805V112.217Z" fill="#F23030"/>
<path d="M139.024 112.217H120.732V118.07H139.024V112.217Z" fill="#F23030"/>
<path d="M147.439 118.071H115.83V148.802H147.439V118.071Z" fill="#FF5352"/>
<path d="M139.821 109.985L131.634 96.4119L123.448 109.985C121.513 113.192 118.916 115.949 115.829 118.07H147.439C144.353 115.948 141.756 113.192 139.821 109.985Z" fill="#81C784"/>
<path d="M131.77 125.974C127.833 125.899 124.61 129.217 124.61 133.155V148.802H138.659V132.997C138.659 129.163 135.587 126.047 131.77 125.974Z" fill="#616161"/>
<path d="M131.77 125.974C127.833 125.899 124.61 129.217 124.61 133.155V139.301C124.61 135.363 127.833 132.045 131.77 132.12C135.587 132.193 138.659 135.309 138.659 139.143V132.997C138.659 129.163 135.587 126.047 131.77 125.974Z" fill="#424242"/>
<path d="M147.439 118.071H115.83V123.924H147.439V118.071Z" fill="#F23030"/>
<path d="M148.151 115.875C145.545 113.978 143.372 111.622 141.701 108.851L141.22 108.053V59.4352C144.11 57.1172 146.708 54.2283 146.708 48.7413C146.708 41.7288 142.37 38.6611 138.304 36.3355C135.589 34.7834 133.903 32.0086 133.903 29.0948V26.8996H132.074V22.2167H135.732V17.8266H132.073V14.168H127.683V17.8266H124.025V22.2167H127.683V26.8996H125.854V29.0948C125.854 32.214 124.335 34.8501 121.688 36.327C117.389 38.7247 112.824 41.901 113.058 49.2865C113.213 54.1749 115.748 57.0209 118.537 59.393V77.2922C117.037 73.6999 113.992 71.6567 111.084 69.9941C108.328 68.4182 106.683 65.727 106.683 62.7956V60.6003H104.854V55.2897H108.513V50.8996H104.854V47.241H100.464V50.8996H96.8054V55.2897H100.464V60.6003H98.6347V62.7956C98.6347 65.8878 97.1162 68.5084 94.4687 69.9853C90.1702 72.383 85.6046 75.5593 85.8387 82.9448C85.9934 87.8333 88.529 90.6792 91.3178 93.0513V115.875H87.8786V101.387H83.4885V115.875H78.293V99.2397C81.1825 96.9217 83.7809 94.0328 83.7809 88.5458C83.7809 81.5332 79.4429 78.4656 75.3771 76.14C72.6211 74.5641 70.9761 71.8729 70.9761 68.9415V66.7462H69.1468V61.0922H72.8054V56.7024H69.1465V53.0438H64.7564V56.7024H61.0978V61.0925H64.7564V66.7465H62.9271V68.9417C62.9271 72.034 61.4086 74.6546 58.7611 76.1315C54.4626 78.5292 49.897 81.7055 50.1311 89.091C50.2858 93.9794 52.8214 96.8253 55.6102 99.1975V115.875H33.0003V79.3413C36.438 76.6202 39.37 73.471 39.5739 67.4013L39.6396 67.4347L50.4437 46.217H58.8319L61.0316 50.3262L64.9023 48.2543L62.342 43.4713V32.4923C64.0585 31.0451 65.6347 29.1074 65.6347 25.6635C65.6347 21.2086 62.9988 19.087 60.15 17.4578C58.7736 16.6708 57.9516 15.3408 57.9516 13.9008V11.7308L56.8541 11.7182V9.04634H60.5127V4.65591H56.8541V0.997314H52.464V4.65591H48.8054V9.04604H52.464V11.6672L51.3665 11.6546V13.8753C51.3665 15.419 50.6194 16.7215 49.3172 17.4478C46.3064 19.1271 43.5404 21.3282 43.6893 26.0177C43.7883 29.139 45.2889 31.0114 46.9028 32.4507V43.4948L38.3042 60.3815C36.4919 56.4165 33.0314 54.1058 29.7226 52.2135C26.277 50.2433 24.22 46.8715 24.22 43.1942V40.999H22.0248V35.9728H25.6834V31.5827H22.0242V27.9241H17.6341V31.5827H13.9755V35.9728H17.6341V40.999H15.4389V43.1942C15.4389 47.0687 13.5346 50.3532 10.2141 52.2056C5.16915 55.0202 -0.190126 58.7441 0.0829205 67.3594C0.266026 73.1388 3.32755 76.488 6.65802 79.2973V115.875H0.0732526V150.997H149.927V115.875H148.151ZM57.9513 41.8266H51.293V33.6314H57.9516V41.8266H57.9513ZM51.4556 21.2819C52.8475 20.5052 53.9496 19.3905 54.6894 18.0616C55.4473 19.3568 56.565 20.4651 57.9703 21.2687C60.5098 22.7207 61.244 23.7065 61.244 25.6629C61.244 27.3024 60.7453 28.1274 59.3871 29.241H49.9008C48.5458 28.0424 48.119 27.2122 48.0768 25.8786C48.0114 23.8117 48.7691 22.7804 51.4556 21.2819ZM141.537 115.875H121.724C123.079 114.428 124.287 112.843 125.327 111.119L131.634 100.662L137.941 111.119C138.981 112.842 140.184 114.43 141.537 115.875ZM129.439 86.168V95.8011L122.927 106.598V60.5582H136.83V100.775L133.83 95.8011V86.168H129.439ZM129.899 32.1162C130.753 35.4191 132.98 38.3482 136.124 40.1467C140.232 42.4955 142.317 44.4701 142.317 48.741C142.317 49.4992 142.255 50.1709 142.134 50.7856C139.081 48.9121 136.839 46.6703 134.491 44.3207C132.253 42.0809 129.952 39.7834 126.894 37.7646C128.366 36.1887 129.398 34.2537 129.899 32.1162ZM123.096 40.578C126.485 42.5248 128.873 44.9104 131.385 47.4238C133.87 49.9108 136.429 52.4669 140.015 54.6334C139.519 55.1379 138.943 55.6392 138.274 56.1677H134.823C132.345 54.4609 130.394 52.5185 128.345 50.4671C125.827 47.9464 123.233 45.3557 119.573 43.1716C120.471 42.25 121.645 41.4258 123.096 40.578ZM117.446 49.1473C117.422 48.3964 117.468 47.7185 117.573 47.0904C120.638 48.9663 122.886 51.2148 125.239 53.5703C126.1 54.4319 126.972 55.3046 127.895 56.1677H121.524C118.896 53.9461 117.541 52.1459 117.446 49.1473ZM102.673 65.8284C103.514 69.1172 105.714 71.9807 108.905 73.8053C113.012 76.1541 115.097 78.1287 115.097 82.3996C115.097 83.4745 114.978 84.3809 114.733 85.1866L100.276 70.7294C101.423 69.3053 102.242 67.6407 102.673 65.8284ZM96.6071 73.8197C96.7248 73.7541 96.8379 73.6837 96.9528 73.6152L112.2 88.8624C111.851 89.1783 111.472 89.497 111.055 89.8266H107.373L93.4216 75.8754C94.3058 75.1767 95.3649 74.5126 96.6071 73.8197ZM109.61 94.2167V115.875H95.7073V94.2167H109.61ZM90.2262 82.8056C90.1837 81.4697 90.3507 80.3529 90.7119 79.3741L101.164 89.826H94.3037C91.6758 87.6044 90.3214 85.8045 90.2262 82.8056ZM79.3904 88.5461C79.3904 92.0429 78.1371 93.7679 75.3472 95.9728H73.7174C74.3558 93.9959 74.7073 91.7479 74.7073 88.5461C74.7073 84.7495 74.1958 82.1625 73.302 80.0127C77.3385 82.3348 79.3904 84.3121 79.3904 88.5461ZM66.0595 79.2847C66.4061 78.7761 66.7169 78.184 66.9935 77.5266C67.268 78.1685 67.5735 78.7536 67.9108 79.261C69.2277 81.2423 70.3172 83.3086 70.3172 88.5461C70.3172 92.2375 69.7919 94.2329 69.0358 95.9728H64.9075C64.079 93.9528 63.6246 92.0163 63.588 88.9952C63.5218 83.4756 64.7195 81.2523 66.0595 79.2847ZM73.9026 100.363V115.875H60V100.363H73.9026ZM54.5189 88.9521C54.3791 84.5499 56.461 82.486 60.605 80.1343C59.6836 82.365 59.151 85.0981 59.1985 89.0479C59.2327 91.8882 59.6063 94.0225 60.2359 95.9728H58.5967C55.9685 93.7509 54.6141 91.9509 54.5189 88.9521ZM35.1952 66.7193C35.1952 71.1153 33.5353 73.3372 30.0557 76.0706H11.6455C15.5402 73.0038 18.842 72.1205 22.2985 71.1961C26.233 70.1444 30.281 69.0604 35.1015 65.0749C35.1627 65.5925 35.1952 66.1377 35.1952 66.7193ZM28.6099 80.4607V115.875H11.049V80.4607H28.6099ZM4.49796 65.7569C4.82843 61.1309 7.58439 58.7004 12.3536 56.0394C16.3931 53.7862 19.0277 49.9017 19.6743 45.3891H19.9986C20.5998 49.2566 22.7807 52.7242 26.1308 55.1177C22.2302 58.2991 19.0257 59.3001 15.6633 60.3493C12.2259 61.4215 8.69474 62.5254 4.49796 65.7569ZM5.24093 70.8566C9.72804 66.8013 13.2533 65.6998 16.9705 64.5402C20.9118 63.3106 24.9779 62.0397 30.0308 57.5623C31.469 58.5431 32.6095 59.5418 33.4488 60.6947C28.8223 64.9049 25.0937 65.9045 21.165 66.9548C16.9591 68.0792 12.6234 69.2385 7.35323 73.9421C6.42482 72.9513 5.7211 71.9585 5.24093 70.8566ZM113.634 146.607H4.46368V120.266H113.634V146.607ZM115.117 115.875H114V93.0938C115.821 91.6333 117.524 89.9456 118.537 87.525V112.864C117.502 113.97 116.358 114.973 115.117 115.875ZM136.464 146.607H126.805V133.156C126.805 131.814 127.36 130.5 128.329 129.55C129.26 128.635 130.468 128.143 131.729 128.169C134.34 128.219 136.464 130.385 136.464 132.998V146.607ZM145.537 146.607H140.854V132.997C140.854 128.009 136.798 123.874 131.812 123.78C129.362 123.735 127.034 124.67 125.254 126.416C123.45 128.186 122.415 130.643 122.415 133.156V146.607H118.025V120.266H145.537V146.607Z" fill="black"/>
<path d="M109.244 142.071H104.854V133.29H109.244V142.071ZM109.244 128.9H104.854V124.51H109.244V128.9Z" fill="white"/>
<path d="M98.5775 142.071H94.1874V133.29H98.5775V142.071ZM98.5775 128.9H94.1874V124.51H98.5775V128.9Z" fill="white"/>
<path d="M87.9108 142.071H83.5207V133.29H87.9108V142.071ZM87.9108 128.9H83.5207V124.51H87.9108V128.9Z" fill="white"/>
<path d="M77.2441 142.071H72.854V133.29H77.2441V142.071ZM77.2441 128.9H72.854V124.51H77.2441V128.9Z" fill="white"/>
<path d="M66.5774 142.071H62.1873V133.29H66.5774V142.071ZM66.5774 128.9H62.1873V124.51H66.5774V128.9Z" fill="white"/>
<path d="M55.9107 142.071H51.5206V133.29H55.9107V142.071ZM55.9107 128.9H51.5206V124.51H55.9107V128.9Z" fill="white"/>
<path d="M45.244 142.071H40.8539V133.29H45.244V142.071ZM45.244 128.9H40.8539V124.51H45.244V128.9Z" fill="white"/>
<path d="M34.5773 142.071H30.1872V133.29H34.5773V142.071ZM34.5773 128.9H30.1872V124.51H34.5773V128.9Z" fill="white"/>
<path d="M23.9106 142.071H19.5205V133.29H23.9106V142.071ZM23.9106 128.9H19.5205V124.51H23.9106V128.9Z" fill="white"/>
<path d="M13.2439 142.071H8.85379V133.29H13.2439V142.071ZM13.2439 128.9H8.85379V124.51H13.2439V128.9Z" fill="white"/>
<path d="M42.5124 111.046H38.1223V106.845H42.5124V111.046ZM42.5124 102.455H38.1223V91.3649L45.5475 69.5927L49.7027 71.0098L42.5124 92.0933V102.455ZM51.1198 66.8543L46.9646 65.4372L48.3817 61.282L52.5369 62.6991L51.1198 66.8543ZM53.9543 58.5439L49.7991 57.1269L51.2162 52.9717L55.3714 54.3888L53.9543 58.5439Z" fill="white"/>
<path d="M132.073 78.8508H127.683V74.4607H132.073V78.8508ZM132.073 70.0706H127.683V65.6804H132.073V70.0706Z" fill="white"/>
</svg>
