<svg width="344" height="344" viewBox="0 0 344 344" fill="none" xmlns="http://www.w3.org/2000/svg">
<g opacity="0.15" filter="url(#filter0_d)">
<path d="M172 300C244.902 300 304 240.902 304 168C304 95.0984 244.902 36 172 36C99.0984 36 40 95.0984 40 168C40 240.902 99.0984 300 172 300Z" fill="#F0F0F0"/>
<path d="M67.2866 87.6355C56.9179 101.126 49.0995 116.674 44.5471 133.566H113.217L67.2866 87.6355Z" fill="#0052B4"/>
<path d="M299.452 133.566C294.9 116.675 287.081 101.127 276.713 87.6362L230.783 133.566H299.452Z" fill="#0052B4"/>
<path d="M44.5471 202.435C49.1 219.326 56.9184 234.874 67.2866 248.364L113.215 202.435H44.5471Z" fill="#0052B4"/>
<path d="M252.364 63.287C238.874 52.9183 223.325 45.0998 206.434 40.5469V109.216L252.364 63.287Z" fill="#0052B4"/>
<path d="M91.6355 272.712C105.126 283.081 120.674 290.899 137.565 295.452V226.783L91.6355 272.712Z" fill="#0052B4"/>
<path d="M137.565 40.5469C120.674 45.0998 105.125 52.9183 91.6355 63.2865L137.565 109.216V40.5469Z" fill="#0052B4"/>
<path d="M206.434 295.452C223.325 290.899 238.874 283.081 252.364 272.713L206.434 226.783V295.452Z" fill="#0052B4"/>
<path d="M230.783 202.435L276.713 248.365C287.081 234.875 294.9 219.326 299.452 202.435H230.783Z" fill="#0052B4"/>
<path d="M302.883 150.783H189.218H189.218V37.1174C183.581 36.3836 177.835 36 172 36C166.164 36 160.419 36.3836 154.783 37.1174V150.782V150.782H41.1174C40.3836 156.419 40 162.165 40 168C40 173.836 40.3836 179.581 41.1174 185.217H154.782H154.782V298.883C160.419 299.616 166.164 300 172 300C177.835 300 183.581 299.617 189.217 298.883V185.218V185.218H302.883C303.616 179.581 304 173.836 304 168C304 162.165 303.616 156.419 302.883 150.783Z" fill="#D80027"/>
<path d="M206.435 202.435L265.338 261.338C268.047 258.63 270.631 255.799 273.097 252.864L222.668 202.435H206.435V202.435Z" fill="#D80027"/>
<path d="M137.565 202.436H137.564L78.6616 261.338C81.3696 264.047 84.2009 266.631 87.1359 269.097L137.565 218.667V202.436Z" fill="#D80027"/>
<path d="M137.565 133.566V133.565L78.6618 74.6614C75.9527 77.3694 73.3684 80.2007 70.9026 83.1357L121.332 133.565H137.565V133.566Z" fill="#D80027"/>
<path d="M206.435 133.566L265.339 74.6617C262.631 71.9526 259.799 69.3683 256.864 66.9031L206.435 117.333V133.566Z" fill="#D80027"/>
</g>
<defs>
<filter id="filter0_d" x="0" y="0" width="344" height="344" filterUnits="userSpaceOnUse" color-interpolation-filters="sRGB">
<feFlood flood-opacity="0" result="BackgroundImageFix"/>
<feColorMatrix in="SourceAlpha" type="matrix" values="0 0 0 0 0 0 0 0 0 0 0 0 0 0 0 0 0 0 127 0"/>
<feOffset dy="4"/>
<feGaussianBlur stdDeviation="20"/>
<feColorMatrix type="matrix" values="0 0 0 0 0 0 0 0 0 0 0 0 0 0 0 0 0 0 1 0"/>
<feBlend mode="normal" in2="BackgroundImageFix" result="effect1_dropShadow"/>
<feBlend mode="normal" in="SourceGraphic" in2="effect1_dropShadow" result="shape"/>
</filter>
</defs>
</svg>
