<svg width="66" height="63" viewBox="0 0 66 63" fill="none" xmlns="http://www.w3.org/2000/svg">
<path opacity="0.25" fill-rule="evenodd" clip-rule="evenodd" d="M32.4225 0.0722632C42.8647 0.0683463 54.7291 -1.0068 61.3748 6.87944C68.0931 14.8518 65.7503 26.3423 62.9604 36.3106C60.3594 45.6044 55.556 54.3242 46.8425 58.8043C37.757 63.4756 26.5574 64.5271 17.5934 59.6361C9.10774 55.0061 6.99205 44.9204 4.53259 35.7188C1.91768 25.9358 -2.78298 14.9289 3.49792 6.90115C9.84346 -1.20921 21.988 0.0761772 32.4225 0.0722632Z" fill="#FF7939"/>
<path d="M18.3094 45.5455C20.6878 45.5455 22.9688 44.626 24.6506 42.9893C26.3324 41.3526 27.2772 39.1328 27.2772 36.8182V23.7273C27.2772 21.4127 26.3324 19.1928 24.6506 17.5562C22.9688 15.9195 20.6878 15 18.3094 15C15.931 15 13.6501 15.9195 11.9683 17.5562C10.2865 19.1928 9.3417 21.4127 9.3417 23.7273V36.8182C9.3417 39.1328 10.2865 41.3526 11.9683 42.9893C13.6501 44.626 15.931 45.5455 18.3094 45.5455ZM13.8256 23.7273C13.8256 22.57 14.298 21.4601 15.1389 20.6417C15.9797 19.8234 17.1202 19.3636 18.3094 19.3636C19.4986 19.3636 20.6391 19.8234 21.48 20.6417C22.3209 21.4601 22.7933 22.57 22.7933 23.7273V36.8182C22.7933 37.9755 22.3209 39.0854 21.48 39.9037C20.6391 40.7221 19.4986 41.1818 18.3094 41.1818C17.1202 41.1818 15.9797 40.7221 15.1389 39.9037C14.298 39.0854 13.8256 37.9755 13.8256 36.8182V23.7273ZM36.2449 36.8182C36.2449 36.2395 36.0087 35.6846 35.5882 35.2754C35.1678 34.8662 34.5976 34.6364 34.003 34.6364C33.4084 34.6364 32.8381 34.8662 32.4177 35.2754C31.9972 35.6846 31.761 36.2395 31.761 36.8182C31.761 40.2901 30.3438 43.6198 27.8211 46.0749C25.2985 48.5299 21.877 49.9091 18.3094 49.9091C14.7418 49.9091 11.3204 48.5299 8.79771 46.0749C6.27505 43.6198 4.85783 40.2901 4.85783 36.8182C4.85783 36.2395 4.62163 35.6846 4.20118 35.2754C3.78074 34.8662 3.21049 34.6364 2.6159 34.6364C2.0213 34.6364 1.45105 34.8662 1.03061 35.2754C0.610166 35.6846 0.373962 36.2395 0.373962 36.8182C0.377921 41.0668 1.97408 45.1682 4.8632 48.3534C7.75233 51.5386 11.736 53.5889 16.0675 54.12V58.6364H11.5836C10.989 58.6364 10.4188 58.8662 9.99834 59.2754C9.5779 59.6846 9.3417 60.2395 9.3417 60.8182C9.3417 61.3968 9.5779 61.9518 9.99834 62.361C10.4188 62.7701 10.989 63 11.5836 63H25.0352C25.6298 63 26.2001 62.7701 26.6205 62.361C27.041 61.9518 27.2772 61.3968 27.2772 60.8182C27.2772 60.2395 27.041 59.6846 26.6205 59.2754C26.2001 58.8662 25.6298 58.6364 25.0352 58.6364H20.5514V54.12C24.8828 53.5889 28.8665 51.5386 31.7557 48.3534C34.6448 45.1682 36.2409 41.0668 36.2449 36.8182Z" fill="#31DC9E"/>
</svg>
